# xmcd
#
# Track frame offsets:
#	150
#	47425
#	88935
#	115623
#	159675
#	179640
#	221603
#	240133
#	267713
#	299693
#
# Disc length: 4265 seconds
#
# Revision: 7
# Processed by: cddbd v1.5.1PL2 Copyright (c) Steve Scherf et al.
# Submitted via: audiograbber 1.83.01
#
DISCID=9310a70a
DTITLE=Various Artist - Великие джазовые пианисты (Car'n'Music #70)
DYEAR=2004
DGENRE=Jazz
TTITLE0=Dave Brubeck - Koto Song [Brubeck]
TTITLE1=Dave Brubeck - Take Five [Desmond]
TTITLE2=Dave Brubeck - Blue Rondo a la Turk [Brubeck]
TTITLE3=Chick Corea And Friends - Sea Breeze [Douglas . Norman . Bearden]
TTITLE4=Chick Corea And Friends - Momen's Notice [Coltrane]
TTITLE5=Chick Corea And Friends - Fiesta [Corea]
TTITLE6=McCoy Tyner - Giant Steps [Coltrane]
TTITLE7=McCoy Tyner - Darn That Dream [DeLand . VanHeusen]
TTITLE8=McCoy Tyner - Miss Bea (Dedicated to Mother) [Tyner]
TTITLE9=McCoy Tyner - Naima [Coltrane]
EXTD=YEAR: 2002
EXTT0=
EXTT1=
EXTT2=
EXTT3=
EXTT4=
EXTT5=
EXTT6=
EXTT7=
EXTT8=
EXTT9=
PLAYORDER=
